<svg width="27" height="27" viewBox="0 0 27 27" fill="none" xmlns="http://www.w3.org/2000/svg">
<path fill-rule="evenodd" clip-rule="evenodd" d="M13.4997 0.583344C6.36967 0.583344 0.583008 6.37001 0.583008 13.5C0.583008 20.63 6.36967 26.4167 13.4997 26.4167C20.6297 26.4167 26.4163 20.63 26.4163 13.5C26.4163 6.37001 20.6297 0.583344 13.4997 0.583344ZM3.16634 13.5C3.16634 12.7121 3.26967 11.9371 3.43759 11.2008L9.61176 17.375V18.6667C9.61176 20.0875 10.7743 21.25 12.1951 21.25V23.7429C7.11884 23.0971 3.16634 18.7571 3.16634 13.5ZM18.6535 18.6667C19.816 18.6667 20.7718 19.4288 21.1077 20.475C22.7868 18.6409 23.8331 16.1867 23.8331 13.5C23.8331 9.17295 21.1464 5.45295 17.3618 3.92879V4.45837C17.3618 5.8792 16.1993 7.0417 14.7785 7.0417H12.1952V9.62504C12.1952 10.3355 11.6139 10.9167 10.9035 10.9167H8.32016V13.5H16.0702C16.7806 13.5 17.3618 14.0813 17.3618 14.7917V18.6667H18.6535Z" fill="white"/>
</svg>
