<svg width="16" height="15" viewBox="0 0 16 15" fill="none" xmlns="http://www.w3.org/2000/svg">
<path d="M0.833333 0.7H15C15.0717 0.7 15.1333 0.761599 15.1333 0.833333V5.83333C15.1333 5.90507 15.0717 5.96667 15 5.96667H0.833333C0.761599 5.96667 0.7 5.90507 0.7 5.83333V0.833333C0.7 0.761599 0.761599 0.7 0.833333 0.7ZM0.833333 9.03333H15C15.0717 9.03333 15.1333 9.09493 15.1333 9.16667V14.1667C15.1333 14.2384 15.0717 14.3 15 14.3H0.833333C0.7616 14.3 0.7 14.2384 0.7 14.1667V9.16667C0.7 9.09493 0.761599 9.03333 0.833333 9.03333Z" stroke="#1C5085" stroke-width="1.4"/>
</svg>
