<svg width="269" height="257" viewBox="0 0 269 257" fill="none" xmlns="http://www.w3.org/2000/svg">
<path d="M125.048 232.131C125.048 227.131 125.548 42.1308 125.048 35.1308C124.548 28.1308 118.399 23.4935 111.548 21.6308C105.142 19.889 103.048 20.1308 90.0481 14.6308C77.0481 9.13081 63.048 12.6308 54.048 21.6308C45.048 30.6308 38.5144 29.8024 32.0481 37.6308C24.7674 46.4451 30.048 61.1308 18.548 67.6308C7.04805 74.1308 4.54802 90.6308 13.048 106.131C21.548 121.631 24.0481 115.631 18.548 131.631C13.048 147.631 22.5481 156.131 22.5481 156.131C22.5481 156.131 31.048 161.631 30.048 182.131C29.0481 202.631 54.048 206.131 54.048 218.131C54.048 230.131 82.5481 233.131 92.5481 241.131C102.548 249.131 125.048 237.131 125.048 232.131Z" fill="#EBEBEB" stroke="#004A87"/>
<path d="M63.5481 75.6308C63.5481 74.4308 63.5481 49.4641 63.5481 37.1308L54.5481 43.1308V77.1308" stroke="#004A8D" stroke-width="3"/>
<path d="M68.5481 32.1308V54.6308H78.5481V33.6308H73.5481V52.1308" stroke="#004A8D" stroke-width="3"/>
<path d="M45.5481 84.1308H59.5906L67.5481 77.1308V58.1308" stroke="#004A8D"/>
<path d="M44.0481 116.131V42.6308L59.0481 31.6308" stroke="#004A8D"/>
<path d="M49.5481 87.6308H62.5481L75.0481 76.6308V59.1308H71.0481V74.6308" stroke="#004A8D"/>
<path d="M69.5481 91.6308L78.5481 83.1308" stroke="#004A8D"/>
<path d="M58.0481 90.6308H65.5481L78.5481 78.6308V63.6308" stroke="#004A8D"/>
<path d="M82.0481 94.1308H50.5481V194.631" stroke="#004A8D"/>
<path d="M101.048 170.631L114.548 149.131V143.631H121.548V139.131V134.631H96.0481" stroke="#004A8D"/>
<path d="M97.0481 92.6308H87.5481V121.131" stroke="#FBB416"/>
<path d="M97.0481 76.6308H90.5481V39.1308" stroke="#FBB416"/>
<path d="M97.0481 100.131H90.5481V137.631" stroke="#FBB416"/>
<path d="M121.548 124.131V131.131H95.5481" stroke="#FBB416"/>
<path d="M121.548 54.1308V47.1308H95.5481" stroke="#FBB416"/>
<path d="M105.548 27.6308L85.0481 20.6308H70.5481V17.6308" stroke="#FBB416"/>
<path d="M22.0481 103.131V113.631" stroke="#004A8D"/>
<path d="M74.5481 213.131L59.5481 203.131V174.131L62.0481 176.131V201.131L72.5481 208.631V203.131" stroke="#004A8D"/>
<path d="M56.5481 170.631V193.131V206.131L39.5481 190.631" stroke="#004A8D"/>
<path d="M74.5481 21.1308V25.2789H85.3481L101.548 30.9826V35.1308H87.3117" stroke="#FBB416"/>
<path d="M92.5481 213.131V226.631" stroke="#004A8D"/>
<path d="M114.548 165.131L104.548 181.631L114.548 190.631" stroke="#004A8D" stroke-width="3"/>
<path d="M21.5481 103.131H25.4052V68.1308H30.5481" stroke="#004A8D"/>
<path d="M60.0481 80.6308H50.5481V41.1308L65.0481 30.6308" stroke="#004A8D"/>
<path d="M113.548 160.131L99.0481 184.131" stroke="#004A8D"/>
<path d="M121.548 43.1308H97.5481V39.1308H121.548" stroke="#004A8D" stroke-width="3"/>
<path d="M100.048 182.131L114.048 194.631" stroke="#004A8D"/>
<path d="M90.5481 124.631V154.631L87.5481 160.131L98.5481 169.631L105.048 160.131" stroke="#FBB416"/>
<path d="M95.5481 209.631L90.0481 204.131V230.131L95.5481 234.131" stroke="#004A8D"/>
<path d="M93.0481 237.131L118.048 229.631L117.048 146.131H121.548V226.131" stroke="#004A8D"/>
<path d="M47.5481 93.1308V192.131" stroke="#004A8D" stroke-width="3"/>
<path d="M55.5481 210.631L35.5481 191.631V134.131" stroke="#004A8D"/>
<path d="M60.5481 121.131L90.0481 121.131" stroke="#FBB416"/>
<path d="M75.0481 187.131V176.131L87.0481 151.631V125.131H60.0481" stroke="#004A8D" stroke-width="3"/>
<path d="M83.0481 143.131L69.0481 173.631V189.131L83.0481 214.631V232.631L98.0481 239.631L120.048 232.631" stroke="#004A8D"/>
<path d="M83.0481 226.631L78.0481 224.131V212.131L64.5481 189.631V177.631" stroke="#004A8D"/>
<path d="M84.0481 146.631L71.5481 174.631V188.131L83.0481 209.131" stroke="#004A8D"/>
<path d="M96.5481 68.6308H93.0481V44.1308" stroke="#FBB416"/>
<path d="M35.5481 120.131H43.0481V125.631H35.5481V130.131H43.0481V190.631" stroke="#004A8D"/>
<path d="M97.0481 109.131H93.5481V133.631" stroke="#FBB416"/>
<path d="M113.548 124.131V128.131H95.5481" stroke="#FBB416"/>
<path d="M113.548 54.1308V50.1308L95.5481 50.1308" stroke="#FBB416"/>
<path d="M54.0481 31.1308L34.5481 45.8773V70.1308" stroke="#004A8D"/>
<path d="M31.0481 48.6308V84.1308H36.5481" stroke="#004A8D"/>
<path d="M95.5481 63.1308H105.548V53.1308" stroke="#004A8D"/>
<path d="M95.5481 116.131H105.548V126.131" stroke="#004A8D"/>
<line x1="40.0481" y1="47.1308" x2="40.0481" y2="118.131" stroke="#004A8D" stroke-width="3"/>
<path d="M36.5481 47.1308L36.5481 118.131M28.0481 73.6308L28.0481 144.631M33.0481 101.631L33.0481 172.631M30.5481 88.1308L30.5481 159.131" stroke="#004A8D"/>
<path d="M97.5481 84.1308H87.5481V33.1308" stroke="#FBB416"/>
<line x1="87.0481" y1="199.131" x2="87.0481" y2="232.131" stroke="#004A8D"/>
<path d="M78.0647 111.048L56.4416 100.368L56.5182 167.589" stroke="#004A8D" stroke-width="3"/>
<circle cx="69.0481" cy="26.6308" r="3.5" fill="#004A8D"/>
<circle cx="18.0481" cy="86.6308" r="3.5" fill="#004A8D"/>
<circle cx="18.0481" cy="77.6308" r="3.5" fill="#004A8D"/>
<circle cx="18.0481" cy="95.6308" r="3.5" fill="#004A8D"/>
<circle cx="39.0481" cy="136.631" r="1.5" fill="#004A8D"/>
<circle cx="59.0481" cy="46.6308" r="1.5" fill="#004A8D"/>
<circle cx="59.0481" cy="53.6308" r="1.5" fill="#004A8D"/>
<circle cx="59.0481" cy="60.6308" r="1.5" fill="#004A8D"/>
<circle cx="59.0481" cy="67.6308" r="1.5" fill="#004A8D"/>
<circle cx="59.0481" cy="74.6308" r="1.5" fill="#004A8D"/>
<circle cx="53.0481" cy="90.6308" r="1.5" fill="#004A8D"/>
<circle cx="48.0481" cy="90.6308" r="1.5" fill="#004A8D"/>
<circle cx="39.0481" cy="144.631" r="1.5" fill="#004A8D"/>
<circle cx="39.0481" cy="152.631" r="1.5" fill="#004A8D"/>
<circle cx="39.0481" cy="160.631" r="1.5" fill="#004A8D"/>
<circle cx="39.0481" cy="168.631" r="1.5" fill="#004A8D"/>
<circle cx="39.0481" cy="176.631" r="1.5" fill="#004A8D"/>
<circle cx="39.0481" cy="184.631" r="1.5" fill="#004A8D"/>
<circle cx="118.048" cy="32.6308" r="3.5" fill="#004A8D"/>
<circle cx="109.048" cy="32.6308" r="3.5" fill="#004A8D"/>
<circle cx="107.048" cy="222.631" r="3.5" fill="#004A8D"/>
<circle cx="99.0481" cy="214.631" r="3.5" fill="#004A8D"/>
<circle cx="87.0481" cy="168.631" r="3.5" fill="#004A8D"/>
<circle cx="76.0481" cy="145.631" r="3.5" fill="#004A8D"/>
<circle cx="94.0481" cy="173.631" r="3.5" fill="#004A8D"/>
<circle cx="97.0481" cy="156.631" r="3.5" fill="#004A8D"/>
<circle cx="112.548" cy="180.131" r="3" fill="#004A8D"/>
<circle cx="64.5481" cy="169.131" r="3" fill="#004A8D"/>
<circle cx="67.0481" cy="215.631" r="2.5" fill="#004A8D"/>
<circle cx="62.0481" cy="211.631" r="2.5" fill="#004A8D"/>
<circle cx="72.0481" cy="219.631" r="2.5" fill="#004A8D"/>
<circle cx="72.0481" cy="226.631" r="2.5" fill="#004A8D"/>
<circle cx="67.0481" cy="222.631" r="2.5" fill="#004A8D"/>
<circle cx="62.0481" cy="218.631" r="2.5" fill="#004A8D"/>
<path d="M89.0481 157.131L98.0481 164.631L103.048 157.631" stroke="#FBB416"/>
<circle cx="99.0481" cy="222.631" r="3.5" fill="#004A8D"/>
<circle cx="107.048" cy="214.631" r="3.5" fill="#004A8D"/>
<circle cx="64.0481" cy="113.631" r="3.5" fill="#004A8D"/>
<circle cx="74.0481" cy="100.631" r="3.5" fill="#004A8D"/>
<circle cx="100.048" cy="121.631" r="2.5" fill="#004A8D"/>
<circle cx="100.048" cy="56.6308" r="2.5" fill="#004A8D"/>
<circle cx="61.0481" cy="27.6308" r="2.5" fill="#004A8D"/>
<path d="M99.5481 231.631L114.048 227.131V204.131L78.5481 170.631" stroke="#004A8D" stroke-width="3"/>
<path d="M80.0481 178.131L109.548 205.631L106.048 209.131L81.0481 184.131V190.131L99.5481 209.131" stroke="#004A8D"/>
<line x1="76.98" y1="189.879" x2="83.98" y2="201.879" stroke="#004A8D"/>
<line x1="103.401" y1="240.653" x2="116.401" y2="236.653" stroke="#004A8D"/>
<path d="M114.548 198.131L97.0481 182.631L114.548 153.631" stroke="#004A8D"/>
<path d="M87.0481 131.131H62.0481V163.131H66.0481V135.131H82.5481V139.631H70.5481V155.631" stroke="#004A8D"/>
<path d="M116.548 139.131H95.5481V146.631H108.048H110.048L105.548 153.131" stroke="#004A8D" stroke-width="3"/>
<path d="M71.0481 116.631H83.0481V29.1308" stroke="#004A8D" stroke-width="3"/>
<path d="M47.5481 84.1308V40.1308" stroke="#004A8D"/>
<path d="M30.5481 152.131H25.5481V106.131" stroke="#004A8D"/>
<path d="M33.5481 41.6308L68.5481 17.1308H83.5481L113.548 27.1308" stroke="#FBB416"/>
<path d="M140.77 232.262C140.77 227.262 140.27 42.2616 140.77 35.2616C141.27 28.2616 147.419 23.6243 154.27 21.7616C160.677 20.0198 162.77 20.2616 175.77 14.7616C188.77 9.26161 202.77 12.7616 211.77 21.7616C220.77 30.7616 227.304 29.9332 233.77 37.7616C241.051 46.5759 235.77 61.2616 247.27 67.7616C258.77 74.2616 261.27 90.7616 252.77 106.262C244.27 121.762 241.77 115.762 247.27 131.762C252.77 147.762 243.27 156.262 243.27 156.262C243.27 156.262 234.77 161.762 235.77 182.262C236.77 202.762 211.77 206.262 211.77 218.262C211.77 230.262 183.27 233.262 173.27 241.262C163.27 249.262 140.77 237.262 140.77 232.262Z" fill="#EBEBEB" stroke="#004A8D"/>
<path d="M202.27 75.7616C202.27 74.5616 202.27 49.5949 202.27 37.2616L211.27 43.2616V77.2616" stroke="#004A8D" stroke-width="3"/>
<path d="M197.27 32.2616V54.7616H187.27V33.7616H192.27V52.2616" stroke="#004A8D" stroke-width="3"/>
<path d="M220.27 84.2616H206.228L198.27 77.2616V58.2616" stroke="#004A8D"/>
<path d="M221.77 116.262V42.7616L206.77 31.7616" stroke="#004A8D"/>
<path d="M216.27 87.7616H203.27L190.77 76.7616V59.2616H194.77V74.7616" stroke="#004A8D"/>
<path d="M196.27 91.7616L187.27 83.2616" stroke="#004A8D"/>
<path d="M207.77 90.7616H200.27L187.27 78.7616V63.7616" stroke="#004A8D"/>
<path d="M183.77 94.2616H215.27V194.762" stroke="#004A8D"/>
<path d="M164.77 170.762L151.27 149.262V143.762H144.27V139.262V134.762H169.77" stroke="#004A8D"/>
<path d="M168.77 92.7616H178.27V121.262" stroke="#FBB416"/>
<path d="M168.77 76.7616H175.27V39.2616" stroke="#FBB416"/>
<path d="M168.77 100.262H175.27V137.762" stroke="#FBB416"/>
<path d="M144.27 124.262V131.262H170.27" stroke="#FBB416"/>
<path d="M144.27 54.2616V47.2616H170.27" stroke="#FBB416"/>
<path d="M160.27 27.7616L180.77 20.7616H195.27V17.7616" stroke="#FBB416"/>
<path d="M243.77 103.262V113.762" stroke="#004A8D"/>
<path d="M191.27 213.262L206.27 203.262V174.262L203.77 176.262V201.262L193.27 208.762V203.262" stroke="#004A8D"/>
<path d="M209.27 170.762V193.262V206.262L226.27 190.762" stroke="#004A8D"/>
<path d="M191.27 21.2616V25.4097H180.47L164.27 31.1134V35.2616H178.507" stroke="#FBB416"/>
<path d="M173.27 213.262V226.762" stroke="#004A8D"/>
<path d="M151.27 165.262L161.27 181.762L151.27 190.762" stroke="#004A8D" stroke-width="3"/>
<path d="M244.27 103.262H240.413V68.2616H235.27" stroke="#004A8D"/>
<path d="M205.77 80.7616H215.27V41.2616L200.77 30.7616" stroke="#004A8D"/>
<path d="M152.27 160.262L166.77 184.262" stroke="#004A8D"/>
<path d="M144.27 43.2616H168.27V39.2616H144.27" stroke="#004A8D" stroke-width="3"/>
<path d="M165.77 182.262L151.77 194.762" stroke="#004A8D"/>
<path d="M175.27 124.762V154.762L178.27 160.262L167.27 169.762L160.77 160.262" stroke="#FBB416"/>
<path d="M170.27 209.762L175.77 204.262V230.262L170.27 234.262" stroke="#004A8D"/>
<path d="M172.77 237.262L147.77 229.762L148.77 146.262H144.27V226.262" stroke="#004A8D"/>
<path d="M218.27 93.2616V192.262" stroke="#004A8D" stroke-width="3"/>
<path d="M210.27 210.762L230.27 191.762V134.262" stroke="#004A8D"/>
<path d="M205.27 121.262L175.77 121.262" stroke="#FBB416"/>
<path d="M190.77 187.262V176.262L178.77 151.762V125.262H205.77" stroke="#004A8D" stroke-width="3"/>
<path d="M182.77 143.262L196.77 173.762V189.262L182.77 214.762V232.762L167.77 239.762L145.77 232.762" stroke="#004A8D"/>
<path d="M182.77 226.762L187.77 224.262V212.262L201.27 189.762V177.762" stroke="#004A8D"/>
<path d="M181.77 146.762L194.27 174.762V188.262L182.77 209.262" stroke="#004A8D"/>
<path d="M169.27 68.7616H172.77V44.2616" stroke="#FBB416"/>
<path d="M230.27 120.262H222.77V125.762H230.27V130.262H222.77V190.762" stroke="#004A8D"/>
<path d="M168.77 109.262H172.27V133.762" stroke="#FBB416"/>
<path d="M152.27 124.262V128.262H170.27" stroke="#FBB416"/>
<path d="M152.27 54.2616V50.2616L170.27 50.2616" stroke="#FBB416"/>
<path d="M211.77 31.2616L231.27 46.0081V70.2616" stroke="#004A8D"/>
<path d="M234.77 48.7616V84.2616H229.27" stroke="#004A8D"/>
<path d="M170.27 63.2616H160.27V53.2616" stroke="#004A8D"/>
<path d="M170.27 116.262H160.27V126.262" stroke="#004A8D"/>
<line y1="-1.5" x2="71" y2="-1.5" transform="matrix(0 1 1 0 227.27 47.2616)" stroke="#004A8D" stroke-width="3"/>
<path d="M229.27 47.2616V118.262M237.77 73.7616V144.762M232.77 101.762V172.762M235.27 88.2616V159.262" stroke="#004A8D"/>
<path d="M168.27 84.2616H178.27V33.2616" stroke="#FBB416"/>
<line y1="-0.5" x2="33" y2="-0.5" transform="matrix(-2.94943e-09 1 1 2.94943e-09 179.27 199.262)" stroke="#004A8D"/>
<path d="M187.754 111.179L209.377 100.499L209.3 167.72" stroke="#004A8D" stroke-width="3"/>
<circle r="3.5" transform="matrix(-1 0 0 1 196.77 26.7616)" fill="#004A8D"/>
<circle r="3.5" transform="matrix(-1 0 0 1 247.77 86.7616)" fill="#004A8D"/>
<circle r="3.5" transform="matrix(-1 0 0 1 247.77 77.7616)" fill="#004A8D"/>
<circle r="3.5" transform="matrix(-1 0 0 1 247.77 95.7616)" fill="#004A8D"/>
<circle r="1.5" transform="matrix(-1 0 0 1 226.77 136.762)" fill="#004A8D"/>
<circle r="1.5" transform="matrix(-1 0 0 1 206.77 46.7616)" fill="#004A8D"/>
<circle r="1.5" transform="matrix(-1 0 0 1 206.77 53.7616)" fill="#004A8D"/>
<circle r="1.5" transform="matrix(-1 0 0 1 206.77 60.7616)" fill="#004A8D"/>
<circle r="1.5" transform="matrix(-1 0 0 1 206.77 67.7616)" fill="#004A8D"/>
<circle r="1.5" transform="matrix(-1 0 0 1 206.77 74.7616)" fill="#004A8D"/>
<circle r="1.5" transform="matrix(-1 0 0 1 212.77 90.7616)" fill="#004A8D"/>
<circle r="1.5" transform="matrix(-1 0 0 1 217.77 90.7616)" fill="#004A8D"/>
<circle r="1.5" transform="matrix(-1 0 0 1 226.77 144.762)" fill="#004A8D"/>
<circle r="1.5" transform="matrix(-1 0 0 1 226.77 152.762)" fill="#004A8D"/>
<circle r="1.5" transform="matrix(-1 0 0 1 226.77 160.762)" fill="#004A8D"/>
<circle r="1.5" transform="matrix(-1 0 0 1 226.77 168.762)" fill="#004A8D"/>
<circle r="1.5" transform="matrix(-1 0 0 1 226.77 176.762)" fill="#004A8D"/>
<circle r="1.5" transform="matrix(-1 0 0 1 226.77 184.762)" fill="#004A8D"/>
<circle r="3.5" transform="matrix(-1 0 0 1 147.77 32.7616)" fill="#004A8D"/>
<circle r="3.5" transform="matrix(-1 0 0 1 156.77 32.7616)" fill="#004A8D"/>
<circle r="3.5" transform="matrix(-1 0 0 1 158.77 222.762)" fill="#004A8D"/>
<circle r="3.5" transform="matrix(-1 0 0 1 166.77 214.762)" fill="#004A8D"/>
<circle r="3.5" transform="matrix(-1 0 0 1 178.77 168.762)" fill="#004A8D"/>
<circle r="3.5" transform="matrix(-1 0 0 1 189.77 145.762)" fill="#004A8D"/>
<circle r="3.5" transform="matrix(-1 0 0 1 171.77 173.762)" fill="#004A8D"/>
<circle r="3.5" transform="matrix(-1 0 0 1 168.77 156.762)" fill="#004A8D"/>
<circle r="3" transform="matrix(-1 0 0 1 153.27 180.262)" fill="#004A8D"/>
<circle r="3" transform="matrix(-1 0 0 1 201.27 169.262)" fill="#004A8D"/>
<circle r="2.5" transform="matrix(-1 0 0 1 198.77 215.762)" fill="#004A8D"/>
<circle r="2.5" transform="matrix(-1 0 0 1 203.77 211.762)" fill="#004A8D"/>
<circle r="2.5" transform="matrix(-1 0 0 1 193.77 219.762)" fill="#004A8D"/>
<circle r="2.5" transform="matrix(-1 0 0 1 193.77 226.762)" fill="#004A8D"/>
<circle r="2.5" transform="matrix(-1 0 0 1 198.77 222.762)" fill="#004A8D"/>
<circle r="2.5" transform="matrix(-1 0 0 1 203.77 218.762)" fill="#004A8D"/>
<path d="M176.77 157.262L167.77 164.762L162.77 157.762" stroke="#FBB416"/>
<circle r="3.5" transform="matrix(-1 0 0 1 166.77 222.762)" fill="#004A8D"/>
<circle r="3.5" transform="matrix(-1 0 0 1 158.77 214.762)" fill="#004A8D"/>
<circle r="3.5" transform="matrix(-1 0 0 1 201.77 113.762)" fill="#004A8D"/>
<circle r="3.5" transform="matrix(-1 0 0 1 191.77 100.762)" fill="#004A8D"/>
<circle r="2.5" transform="matrix(-1 0 0 1 165.77 121.762)" fill="#004A8D"/>
<circle r="2.5" transform="matrix(-1 0 0 1 165.77 56.7616)" fill="#004A8D"/>
<circle r="2.5" transform="matrix(-1 0 0 1 204.77 27.7616)" fill="#004A8D"/>
<path d="M166.27 231.762L151.77 227.262V204.262L187.27 170.762" stroke="#004A8D" stroke-width="3"/>
<path d="M185.77 178.262L156.27 205.762L159.77 209.262L184.77 184.262V190.262L166.27 209.262" stroke="#004A8D"/>
<line y1="-0.5" x2="13.8924" y2="-0.5" transform="matrix(-0.503871 0.863779 0.863779 0.503871 189.27 190.262)" stroke="#004A8D"/>
<line y1="-0.5" x2="13.6015" y2="-0.5" transform="matrix(-0.955779 -0.294086 -0.294086 0.955779 162.27 241.262)" stroke="#004A8D"/>
<path d="M151.27 198.262L168.77 182.762L151.27 153.762" stroke="#004A8D"/>
<path d="M178.77 131.262H203.77V163.262H199.77V135.262H183.27V139.762H195.27V155.762" stroke="#004A8D"/>
<path d="M149.27 139.262H170.27V146.762H157.77H155.77L160.27 153.262" stroke="#004A8D" stroke-width="3"/>
<path d="M194.77 116.762H182.77V29.2616" stroke="#004A8D" stroke-width="3"/>
<path d="M218.27 84.2616V40.2616" stroke="#004A8D"/>
<path d="M235.27 152.262H240.27V106.262" stroke="#004A8D"/>
<path d="M232.27 41.7616L197.27 17.2616H182.27L152.27 27.2616" stroke="#FBB416"/>
<rect x="108.048" y="64.6308" width="49" height="49" fill="#FBB416" stroke="#004A87"/>
<rect x="120.548" y="76.1308" width="25" height="25" rx="5" fill="#004A87"/>
<circle cx="101.048" cy="68.6308" r="2.5" fill="#004A87"/>
<line x1="108.548" y1="68.6308" x2="101.548" y2="68.6308" stroke="#004A87"/>
<circle cx="101.048" cy="76.6308" r="2.5" fill="#004A87"/>
<line x1="108.548" y1="76.6308" x2="101.548" y2="76.6308" stroke="#004A87"/>
<circle cx="101.048" cy="84.6308" r="2.5" fill="#004A87"/>
<line x1="108.548" y1="84.6308" x2="101.548" y2="84.6308" stroke="#004A87"/>
<circle cx="101.048" cy="92.6308" r="2.5" fill="#004A87"/>
<line x1="108.548" y1="92.6308" x2="101.548" y2="92.6308" stroke="#004A87"/>
<circle cx="101.048" cy="100.631" r="2.5" fill="#004A87"/>
<line x1="108.548" y1="100.631" x2="101.548" y2="100.631" stroke="#004A87"/>
<circle cx="101.048" cy="108.631" r="2.5" fill="#004A87"/>
<line x1="108.548" y1="108.631" x2="101.548" y2="108.631" stroke="#004A87"/>
<circle r="2.5" transform="matrix(-1 0 0 1 164.048 68.6308)" fill="#004A87"/>
<line y1="-0.5" x2="7" y2="-0.5" transform="matrix(1 0 0 -1 156.548 68.1308)" stroke="#004A87"/>
<circle r="2.5" transform="matrix(-1 0 0 1 164.048 76.6308)" fill="#004A87"/>
<line y1="-0.5" x2="7" y2="-0.5" transform="matrix(1 0 0 -1 156.548 76.1308)" stroke="#004A87"/>
<circle r="2.5" transform="matrix(-1 0 0 1 164.048 84.6308)" fill="#004A87"/>
<line y1="-0.5" x2="7" y2="-0.5" transform="matrix(1 0 0 -1 156.548 84.1308)" stroke="#004A87"/>
<circle r="2.5" transform="matrix(-1 0 0 1 164.048 92.6308)" fill="#004A87"/>
<line y1="-0.5" x2="7" y2="-0.5" transform="matrix(1 0 0 -1 156.548 92.1308)" stroke="#004A87"/>
<circle r="2.5" transform="matrix(-1 0 0 1 164.048 100.631)" fill="#004A87"/>
<line y1="-0.5" x2="7" y2="-0.5" transform="matrix(1 0 0 -1 156.548 100.131)" stroke="#004A87"/>
<circle r="2.5" transform="matrix(-1 0 0 1 164.048 108.631)" fill="#004A87"/>
<line y1="-0.5" x2="7" y2="-0.5" transform="matrix(1 0 0 -1 156.548 108.131)" stroke="#004A87"/>
<circle r="2.5" transform="matrix(0 -1 -1 0 153.048 120.631)" fill="#004A87"/>
<line y1="-0.5" x2="7" y2="-0.5" transform="matrix(0 1 1 0 153.548 113.131)" stroke="#004A87"/>
<circle r="2.5" transform="matrix(0 -1 -1 0 145.048 120.631)" fill="#004A87"/>
<line y1="-0.5" x2="7" y2="-0.5" transform="matrix(0 1 1 0 145.548 113.131)" stroke="#004A87"/>
<circle r="2.5" transform="matrix(0 -1 -1 0 137.048 120.631)" fill="#004A87"/>
<line y1="-0.5" x2="7" y2="-0.5" transform="matrix(0 1 1 0 137.548 113.131)" stroke="#004A87"/>
<circle r="2.5" transform="matrix(0 -1 -1 0 129.048 120.631)" fill="#004A87"/>
<line y1="-0.5" x2="7" y2="-0.5" transform="matrix(0 1 1 0 129.548 113.131)" stroke="#004A87"/>
<circle r="2.5" transform="matrix(0 -1 -1 0 121.048 120.631)" fill="#004A87"/>
<line y1="-0.5" x2="7" y2="-0.5" transform="matrix(0 1 1 0 121.548 113.131)" stroke="#004A87"/>
<circle r="2.5" transform="matrix(0 -1 -1 0 113.048 120.631)" fill="#004A87"/>
<line y1="-0.5" x2="7" y2="-0.5" transform="matrix(0 1 1 0 113.548 113.131)" stroke="#004A87"/>
<circle cx="153.048" cy="57.6308" r="2.5" transform="rotate(90 153.048 57.6308)" fill="#004A87"/>
<line x1="153.048" y1="65.1308" x2="153.048" y2="58.1308" stroke="#004A87"/>
<circle cx="145.048" cy="57.6308" r="2.5" transform="rotate(90 145.048 57.6308)" fill="#004A87"/>
<line x1="145.048" y1="65.1308" x2="145.048" y2="58.1308" stroke="#004A87"/>
<circle cx="137.048" cy="57.6308" r="2.5" transform="rotate(90 137.048 57.6308)" fill="#004A87"/>
<line x1="137.048" y1="65.1308" x2="137.048" y2="58.1308" stroke="#004A87"/>
<circle cx="129.048" cy="57.6308" r="2.5" transform="rotate(90 129.048 57.6308)" fill="#004A87"/>
<line x1="129.048" y1="65.1308" x2="129.048" y2="58.1308" stroke="#004A87"/>
<circle cx="121.048" cy="57.6308" r="2.5" transform="rotate(90 121.048 57.6308)" fill="#004A87"/>
<line x1="121.048" y1="65.1308" x2="121.048" y2="58.1308" stroke="#004A87"/>
<circle cx="113.048" cy="57.6308" r="2.5" transform="rotate(90 113.048 57.6308)" fill="#004A87"/>
<line x1="113.048" y1="65.1308" x2="113.048" y2="58.1308" stroke="#004A87"/>
</svg>
