<svg width="15" height="15" viewBox="0 0 15 15" fill="none" xmlns="http://www.w3.org/2000/svg">
<path d="M1 7.63333C0.834314 7.63333 0.7 7.49902 0.7 7.33333V1C0.7 0.834314 0.834315 0.7 0.999999 0.7H5.66667C5.83235 0.7 5.96667 0.834315 5.96667 1V7.33333C5.96667 7.49902 5.83235 7.63333 5.66667 7.63333H1ZM1 14.3C0.834314 14.3 0.7 14.1657 0.7 14V11C0.7 10.8343 0.834314 10.7 0.999999 10.7H5.66667C5.83235 10.7 5.96667 10.8343 5.96667 11V14C5.96667 14.1657 5.83235 14.3 5.66667 14.3H1ZM9.33333 14.3C9.16765 14.3 9.03333 14.1657 9.03333 14V7.66667C9.03333 7.50098 9.16765 7.36667 9.33333 7.36667H14C14.1657 7.36667 14.3 7.50098 14.3 7.66667V14C14.3 14.1657 14.1657 14.3 14 14.3H9.33333ZM9.03333 1C9.03333 0.834314 9.16765 0.7 9.33333 0.7H14C14.1657 0.7 14.3 0.834314 14.3 1V4C14.3 4.16569 14.1657 4.3 14 4.3H9.33333C9.16765 4.3 9.03333 4.16569 9.03333 4V1Z" stroke="#696968" stroke-width="1.4"/>
</svg>
